<?xml version="1.0" encoding="utf-8" standalone="no"?>
<!DOCTYPE svg PUBLIC "-//W3C//DTD SVG 1.1//EN"
  "http://www.w3.org/Graphics/SVG/1.1/DTD/svg11.dtd">
<!-- Created with matplotlib (http://matplotlib.org/) -->
<svg height="442pt" version="1.1" viewBox="0 0 586 442" width="586pt" xmlns="http://www.w3.org/2000/svg" xmlns:xlink="http://www.w3.org/1999/xlink">
 <defs>
  <style type="text/css">
*{stroke-linecap:butt;stroke-linejoin:round;}
  </style>
 </defs>
 <g id="figure_1">
  <g id="patch_1">
   <path d="
M0 442.8
L586.8 442.8
L586.8 0
L0 0
z
" style="fill:#ffffff;"/>
  </g>
  <g id="axes_1">
   <g id="patch_2">
    <path d="
M73.35 398.52
L528.12 398.52
L528.12 44.28
L73.35 44.28
z
" style="fill:#ffffff;"/>
   </g>
   <g id="line2d_1">
    <path clip-path="url(#p9061672a36)" d="
M73.35 186.467
L77.8977 142.984
L82.4454 184.147
L86.9931 202.541
L91.5408 274.147
L96.0885 159.588
L100.636 199.161
L105.184 175.355
L109.732 226.677
L114.279 167.465
L118.827 258.483
L123.375 208.321
L127.922 250.208
L132.47 214.998
L137.018 193.402
L141.566 184.208
L146.113 224.779
L150.661 258.588
L155.209 181.542
L159.756 166.195
L164.304 183.513
L168.852 166.612
L173.399 240.092
L177.947 168.818
L182.495 253.306
L187.043 287.425
L191.59 178.744
L196.138 249.418
L200.686 202.778
L205.233 177.074
L209.781 235.484
L214.329 237.811
L218.876 274.972
L223.424 170.328
L227.972 270.942
L232.52 198.941
L237.067 190.217
L241.615 294.383
L246.163 162.337
L250.71 163.096
L255.258 277.102
L259.806 252.815
L264.353 241.316
L268.901 250.927
L273.449 277.798
L277.997 252.547
L282.544 275.438
L287.092 287.131
L291.64 157.281
L296.187 257.424
L300.735 281.753
L305.283 165.25
L309.83 204.847
L314.378 235.61
L318.926 166.925
L323.474 262.987
L328.021 178.256
L332.569 152.509
L337.117 242.926
L341.664 199.926
L346.212 252.95
L350.76 204.24
L355.307 273.004
L359.855 195.534
L364.403 208.601
L368.951 194.891
L373.498 178.399
L378.046 236.215
L382.594 243.187
L387.141 167.841
L391.689 195.374
L396.237 267.937
L400.784 199.924
L405.332 220.276
L409.88 233.248
L414.428 220.265
L418.975 280.801
L423.523 157.58
L428.071 306.519
L432.618 273.162
L437.166 171.798
L441.714 268.467
L446.261 179.66
L450.809 198.539
L455.357 177.545
L459.905 288.082
L464.452 204.232
L469 242.443
L473.548 285.926
L478.095 245.752
L482.643 165.017
L487.191 262.254
L491.738 263.055
L496.286 205.831
L500.834 173.671
L505.382 292.832
L509.929 169.458
L514.477 201.476
L519.025 280.886
L523.572 197.521" style="fill:none;stroke:#0000ff;stroke-linecap:square;"/>
   </g>
   <g id="line2d_2">
    <path clip-path="url(#p9061672a36)" d="
M73.35 272.241
L77.8977 253.886
L82.4454 193.598
L86.9931 131.339
L91.5408 211.614
L96.0885 283.231
L100.636 285.85
L105.184 200.946
L109.732 240.303
L114.279 230.241
L118.827 300.297
L123.375 181.376
L127.922 304.962
L132.47 208.127
L137.018 288.359
L141.566 174.999
L146.113 239.199
L150.661 192.66
L155.209 263.47
L159.756 170.747
L164.304 212.238
L168.852 85.7311
L173.399 260.995
L177.947 156.48
L182.495 280.77
L187.043 276.754
L191.59 171.165
L196.138 269.523
L200.686 104.087
L205.233 259.529
L209.781 106.598
L214.329 245.258
L218.876 287.664
L223.424 264.674
L227.972 133.89
L232.52 209.785
L237.067 246.485
L241.615 184.318
L246.163 140.227
L250.71 180.738
L255.258 191.231
L259.806 249.437
L264.353 204.129
L268.901 259.053
L273.449 125.052
L277.997 117.074
L282.544 168.196
L287.092 94.8312
L291.64 270.441
L296.187 322.721
L300.735 147.398
L305.283 160.812
L309.83 283.403
L314.378 140.489
L318.926 159.151
L323.474 264.866
L328.021 219.525
L332.569 178.111
L337.117 229.026
L341.664 164.521
L346.212 371.702
L350.76 189.105
L355.307 149.764
L359.855 214.65
L364.403 187.364
L368.951 211.436
L373.498 152.025
L378.046 355.231
L382.594 321.557
L387.141 200.04
L391.689 240.792
L396.237 344.252
L400.784 295.815
L405.332 268.025
L409.88 167.134
L414.428 162.401
L418.975 290.867
L423.523 178.155
L428.071 234.193
L432.618 207.513
L437.166 260.682
L441.714 323.79
L446.261 88.7664
L450.809 241.84
L455.357 252.058
L459.905 146.216
L464.452 255.994
L469 119.776
L473.548 342.15
L478.095 242.576
L482.643 141.37
L487.191 184.104
L491.738 207.506
L496.286 261.074
L500.834 228.167
L505.382 224.421
L509.929 146.354
L514.477 277
L519.025 232.562
L523.572 160.998" style="fill:none;stroke:#ff0000;stroke-linecap:square;"/>
   </g>
   <g id="patch_3">
    <path d="
M73.35 44.28
L528.12 44.28" style="fill:none;stroke:#000000;stroke-linecap:square;stroke-linejoin:miter;"/>
   </g>
   <g id="patch_4">
    <path d="
M528.12 398.52
L528.12 44.28" style="fill:none;stroke:#000000;stroke-linecap:square;stroke-linejoin:miter;"/>
   </g>
   <g id="patch_5">
    <path d="
M73.35 398.52
L528.12 398.52" style="fill:none;stroke:#000000;stroke-linecap:square;stroke-linejoin:miter;"/>
   </g>
   <g id="patch_6">
    <path d="
M73.35 398.52
L73.35 44.28" style="fill:none;stroke:#000000;stroke-linecap:square;stroke-linejoin:miter;"/>
   </g>
   <g id="matplotlib.axis_1">
    <g id="xtick_1">
     <g id="line2d_3">
      <defs>
       <path d="
M0 0
L0 -4" id="m93b0483c22" style="stroke:#000000;stroke-width:0.5;"/>
      </defs>
      <g>
       <use style="stroke:#000000;stroke-width:0.5;" x="73.35" xlink:href="#m93b0483c22" y="398.52"/>
      </g>
     </g>
     <g id="line2d_4">
      <defs>
       <path d="
M0 0
L0 4" id="m741efc42ff" style="stroke:#000000;stroke-width:0.5;"/>
      </defs>
      <g>
       <use style="stroke:#000000;stroke-width:0.5;" x="73.35" xlink:href="#m741efc42ff" y="44.28"/>
      </g>
     </g>
     <g id="text_1">
      <!-- 0 -->
      <defs>
       <path d="
M31.7812 66.4062
Q24.1719 66.4062 20.3281 58.9062
Q16.5 51.4219 16.5 36.375
Q16.5 21.3906 20.3281 13.8906
Q24.1719 6.39062 31.7812 6.39062
Q39.4531 6.39062 43.2812 13.8906
Q47.125 21.3906 47.125 36.375
Q47.125 51.4219 43.2812 58.9062
Q39.4531 66.4062 31.7812 66.4062
M31.7812 74.2188
Q44.0469 74.2188 50.5156 64.5156
Q56.9844 54.8281 56.9844 36.375
Q56.9844 17.9688 50.5156 8.26562
Q44.0469 -1.42188 31.7812 -1.42188
Q19.5312 -1.42188 13.0625 8.26562
Q6.59375 17.9688 6.59375 36.375
Q6.59375 54.8281 13.0625 64.5156
Q19.5312 74.2188 31.7812 74.2188" id="BitstreamVeraSans-Roman-30"/>
      </defs>
      <g transform="translate(70.3265625 411.638125)scale(0.12 -0.12)">
       <use xlink:href="#BitstreamVeraSans-Roman-30"/>
      </g>
     </g>
    </g>
    <g id="xtick_2">
     <g id="line2d_5">
      <g>
       <use style="stroke:#000000;stroke-width:0.5;" x="164.304" xlink:href="#m93b0483c22" y="398.52"/>
      </g>
     </g>
     <g id="line2d_6">
      <g>
       <use style="stroke:#000000;stroke-width:0.5;" x="164.304" xlink:href="#m741efc42ff" y="44.28"/>
      </g>
     </g>
     <g id="text_2">
      <!-- 100 -->
      <defs>
       <path d="
M12.4062 8.29688
L28.5156 8.29688
L28.5156 63.9219
L10.9844 60.4062
L10.9844 69.3906
L28.4219 72.9062
L38.2812 72.9062
L38.2812 8.29688
L54.3906 8.29688
L54.3906 0
L12.4062 0
z
" id="BitstreamVeraSans-Roman-31"/>
      </defs>
      <g transform="translate(153.909 411.638125)scale(0.12 -0.12)">
       <use xlink:href="#BitstreamVeraSans-Roman-31"/>
       <use x="63.623046875" xlink:href="#BitstreamVeraSans-Roman-30"/>
       <use x="127.24609375" xlink:href="#BitstreamVeraSans-Roman-30"/>
      </g>
     </g>
    </g>
    <g id="xtick_3">
     <g id="line2d_7">
      <g>
       <use style="stroke:#000000;stroke-width:0.5;" x="255.258" xlink:href="#m93b0483c22" y="398.52"/>
      </g>
     </g>
     <g id="line2d_8">
      <g>
       <use style="stroke:#000000;stroke-width:0.5;" x="255.258" xlink:href="#m741efc42ff" y="44.28"/>
      </g>
     </g>
     <g id="text_3">
      <!-- 200 -->
      <defs>
       <path d="
M19.1875 8.29688
L53.6094 8.29688
L53.6094 0
L7.32812 0
L7.32812 8.29688
Q12.9375 14.1094 22.625 23.8906
Q32.3281 33.6875 34.8125 36.5312
Q39.5469 41.8438 41.4219 45.5312
Q43.3125 49.2188 43.3125 52.7812
Q43.3125 58.5938 39.2344 62.25
Q35.1562 65.9219 28.6094 65.9219
Q23.9688 65.9219 18.8125 64.3125
Q13.6719 62.7031 7.8125 59.4219
L7.8125 69.3906
Q13.7656 71.7812 18.9375 73
Q24.125 74.2188 28.4219 74.2188
Q39.75 74.2188 46.4844 68.5469
Q53.2188 62.8906 53.2188 53.4219
Q53.2188 48.9219 51.5312 44.8906
Q49.8594 40.875 45.4062 35.4062
Q44.1875 33.9844 37.6406 27.2188
Q31.1094 20.4531 19.1875 8.29688" id="BitstreamVeraSans-Roman-32"/>
      </defs>
      <g transform="translate(244.643625 411.638125)scale(0.12 -0.12)">
       <use xlink:href="#BitstreamVeraSans-Roman-32"/>
       <use x="63.623046875" xlink:href="#BitstreamVeraSans-Roman-30"/>
       <use x="127.24609375" xlink:href="#BitstreamVeraSans-Roman-30"/>
      </g>
     </g>
    </g>
    <g id="xtick_4">
     <g id="line2d_9">
      <g>
       <use style="stroke:#000000;stroke-width:0.5;" x="346.212" xlink:href="#m93b0483c22" y="398.52"/>
      </g>
     </g>
     <g id="line2d_10">
      <g>
       <use style="stroke:#000000;stroke-width:0.5;" x="346.212" xlink:href="#m741efc42ff" y="44.28"/>
      </g>
     </g>
     <g id="text_4">
      <!-- 300 -->
      <defs>
       <path d="
M40.5781 39.3125
Q47.6562 37.7969 51.625 33
Q55.6094 28.2188 55.6094 21.1875
Q55.6094 10.4062 48.1875 4.48438
Q40.7656 -1.42188 27.0938 -1.42188
Q22.5156 -1.42188 17.6562 -0.515625
Q12.7969 0.390625 7.625 2.20312
L7.625 11.7188
Q11.7188 9.32812 16.5938 8.10938
Q21.4844 6.89062 26.8125 6.89062
Q36.0781 6.89062 40.9375 10.5469
Q45.7969 14.2031 45.7969 21.1875
Q45.7969 27.6406 41.2812 31.2656
Q36.7656 34.9062 28.7188 34.9062
L20.2188 34.9062
L20.2188 43.0156
L29.1094 43.0156
Q36.375 43.0156 40.2344 45.9219
Q44.0938 48.8281 44.0938 54.2969
Q44.0938 59.9062 40.1094 62.9062
Q36.1406 65.9219 28.7188 65.9219
Q24.6562 65.9219 20.0156 65.0312
Q15.375 64.1562 9.8125 62.3125
L9.8125 71.0938
Q15.4375 72.6562 20.3438 73.4375
Q25.25 74.2188 29.5938 74.2188
Q40.8281 74.2188 47.3594 69.1094
Q53.9062 64.0156 53.9062 55.3281
Q53.9062 49.2656 50.4375 45.0938
Q46.9688 40.9219 40.5781 39.3125" id="BitstreamVeraSans-Roman-33"/>
      </defs>
      <g transform="translate(335.6154375 411.638125)scale(0.12 -0.12)">
       <use xlink:href="#BitstreamVeraSans-Roman-33"/>
       <use x="63.623046875" xlink:href="#BitstreamVeraSans-Roman-30"/>
       <use x="127.24609375" xlink:href="#BitstreamVeraSans-Roman-30"/>
      </g>
     </g>
    </g>
    <g id="xtick_5">
     <g id="line2d_11">
      <g>
       <use style="stroke:#000000;stroke-width:0.5;" x="437.166" xlink:href="#m93b0483c22" y="398.52"/>
      </g>
     </g>
     <g id="line2d_12">
      <g>
       <use style="stroke:#000000;stroke-width:0.5;" x="437.166" xlink:href="#m741efc42ff" y="44.28"/>
      </g>
     </g>
     <g id="text_5">
      <!-- 400 -->
      <defs>
       <path d="
M37.7969 64.3125
L12.8906 25.3906
L37.7969 25.3906
z

M35.2031 72.9062
L47.6094 72.9062
L47.6094 25.3906
L58.0156 25.3906
L58.0156 17.1875
L47.6094 17.1875
L47.6094 0
L37.7969 0
L37.7969 17.1875
L4.89062 17.1875
L4.89062 26.7031
z
" id="BitstreamVeraSans-Roman-34"/>
      </defs>
      <g transform="translate(426.405375 411.638125)scale(0.12 -0.12)">
       <use xlink:href="#BitstreamVeraSans-Roman-34"/>
       <use x="63.623046875" xlink:href="#BitstreamVeraSans-Roman-30"/>
       <use x="127.24609375" xlink:href="#BitstreamVeraSans-Roman-30"/>
      </g>
     </g>
    </g>
    <g id="xtick_6">
     <g id="line2d_13">
      <g>
       <use style="stroke:#000000;stroke-width:0.5;" x="528.12" xlink:href="#m93b0483c22" y="398.52"/>
      </g>
     </g>
     <g id="line2d_14">
      <g>
       <use style="stroke:#000000;stroke-width:0.5;" x="528.12" xlink:href="#m741efc42ff" y="44.28"/>
      </g>
     </g>
     <g id="text_6">
      <!-- 500 -->
      <defs>
       <path d="
M10.7969 72.9062
L49.5156 72.9062
L49.5156 64.5938
L19.8281 64.5938
L19.8281 46.7344
Q21.9688 47.4688 24.1094 47.8281
Q26.2656 48.1875 28.4219 48.1875
Q40.625 48.1875 47.75 41.5
Q54.8906 34.8125 54.8906 23.3906
Q54.8906 11.625 47.5625 5.09375
Q40.2344 -1.42188 26.9062 -1.42188
Q22.3125 -1.42188 17.5469 -0.640625
Q12.7969 0.140625 7.71875 1.70312
L7.71875 11.625
Q12.1094 9.23438 16.7969 8.0625
Q21.4844 6.89062 26.7031 6.89062
Q35.1562 6.89062 40.0781 11.3281
Q45.0156 15.7656 45.0156 23.3906
Q45.0156 31 40.0781 35.4375
Q35.1562 39.8906 26.7031 39.8906
Q22.75 39.8906 18.8125 39.0156
Q14.8906 38.1406 10.7969 36.2812
z
" id="BitstreamVeraSans-Roman-35"/>
      </defs>
      <g transform="translate(517.5290625 411.638125)scale(0.12 -0.12)">
       <use xlink:href="#BitstreamVeraSans-Roman-35"/>
       <use x="63.623046875" xlink:href="#BitstreamVeraSans-Roman-30"/>
       <use x="127.24609375" xlink:href="#BitstreamVeraSans-Roman-30"/>
      </g>
     </g>
    </g>
    <g id="text_7">
     <!-- 维度 -->
     <defs>
      <path d="
M39.8438 31.6406
Q40.2344 39.4531 40.2344 49.6094
L30.0781 49.6094
L25.3906 48.8281
L22.2656 51.9531
L40.2344 51.9531
Q40.2344 57.8125 39.8438 64.8438
L48.4375 60.5469
L45.3125 58.5938
L45.3125 51.9531
L67.1875 51.9531
Q67.1875 58.5938 66.7969 64.4531
L75.7812 60.5469
L72.2656 58.2031
L72.2656 51.9531
L79.6875 51.9531
L84.7656 57.0312
L92.1875 49.6094
L72.2656 49.6094
Q72.2656 38.2812 72.6562 34.7656
L67.1875 32.4219
L67.1875 35.9375
L45.3125 35.9375
L45.3125 33.9844
z

M76.1719 23.4375
Q67.1875 12.1094 60.9375 6.64062
Q73.4375 -1.17188 94.1406 -1.95312
L94.1406 -3.51562
Q87.8906 -4.6875 86.7188 -8.59375
Q68.3594 -5.07812 57.4219 3.51562
Q38.6719 -7.03125 16.7969 -9.76562
L16.4062 -8.20312
Q37.1094 -4.29688 53.9062 7.03125
Q46.4844 14.4531 40.2344 25.3906
L36.3281 25.3906
L32.8125 24.6094
L29.6875 27.7344
L70.7031 27.7344
L74.2188 31.25
L80.0781 25.3906
z

M42.1875 25.3906
Q49.6094 15.2344 57.0312 9.76562
Q64.8438 17.1875 70.3125 25.3906
z

M45.3125 49.6094
L45.3125 38.2812
L67.1875 38.2812
L67.1875 49.6094
z

M15.2344 72.6562
L21.875 68.75
L52.7344 68.75
Q52.3438 71.0938 50.9688 73.8281
Q49.6094 76.5625 45.3125 81.6406
L46.4844 82.4219
Q55.4688 78.5156 56.8281 76.3594
Q58.2031 74.2188 58.2031 73.8281
Q58.2031 71.4844 55.0781 68.75
L80.4688 68.75
L85.9375 74.2188
L93.75 66.4062
L21.4844 66.4062
Q21.875 42.9688 20.1094 29.875
Q18.3594 16.7969 14.4531 7.42188
Q10.5469 -1.95312 4.6875 -9.76562
L3.51562 -8.98438
Q11.3281 4.6875 13.4688 19.5312
Q15.625 34.375 15.8125 49.7969
Q16.0156 65.2344 15.2344 72.6562" id="SimSun-5ea6"/>
      <path d="
M15.625 24.2188
Q28.5156 26.5625 39.4531 28.9062
L39.8438 27.3438
Q30.8594 25 22.6562 21.4844
Q14.4531 17.9688 12.1094 15.2344
L6.64062 23.0469
Q9.375 23.4375 14.25 28.5156
Q19.1406 33.5938 25.7812 44.9219
Q22.2656 44.1406 17.9688 42.9688
Q13.6719 41.7969 10.5469 38.6719
L5.46875 45.7031
Q9.375 46.4844 14.8438 59.1719
Q20.3125 71.875 22.2656 80.0781
L30.8594 75.3906
L27.3438 73.8281
Q21.875 64.0625 11.3281 45.7031
L26.9531 47.2656
Q32.0312 57.4219 33.9844 64.0625
L41.0156 58.5938
L38.2812 57.0312
Q27.3438 37.5 15.625 24.2188
M7.42188 3.90625
Q10.5469 4.6875 17.9688 7.03125
Q25.3906 9.375 40.625 14.4531
L41.0156 12.8906
Q30.4688 8.20312 22.8438 4.29688
Q15.2344 0.390625 12.8906 -3.125
z

M50.3906 39.0625
L50.3906 22.6562
L66.7969 22.6562
L66.7969 39.0625
z

M50.3906 20.3125
L50.3906 2.34375
L66.7969 2.34375
L66.7969 20.3125
z

M64.0625 79.2969
Q75.3906 73.8281 75.9688 70.8906
Q76.5625 67.9688 74.7969 65.8125
Q73.0469 63.6719 72.2656 63.6719
Q71.0938 63.6719 70.3125 66.7969
Q68.75 71.875 63.2812 78.5156
z

M44.9219 -9.76562
Q45.3125 0.390625 45.3125 50
Q42.1875 43.75 35.1562 33.9844
L33.9844 34.7656
Q40.2344 46.0938 44.5312 58.5938
Q48.8281 71.0938 50.7812 82.0312
L59.7656 76.9531
L56.6406 75
Q54.6875 70.3125 50.3906 60.1562
L81.6406 60.1562
L87.1094 65.625
L93.75 57.8125
L71.875 57.8125
L71.875 41.4062
L80.0781 41.4062
L85.5469 46.875
L91.7969 39.0625
L71.875 39.0625
L71.875 22.6562
L79.6875 22.6562
L85.1562 27.7344
L91.7969 20.3125
L71.875 20.3125
L71.875 2.34375
L83.5938 2.34375
L89.0625 7.8125
L95.7031 0
L50.3906 0
L50.3906 -7.03125
z

M66.7969 57.8125
L50.3906 57.8125
L50.3906 41.4062
L66.7969 41.4062
z
" id="SimSun-7ef4"/>
     </defs>
     <g transform="translate(287.52796875 430.2353125)scale(0.14 -0.14)">
      <use xlink:href="#SimSun-7ef4"/>
      <use x="100.0" xlink:href="#SimSun-5ea6"/>
     </g>
    </g>
   </g>
   <g id="matplotlib.axis_2">
    <g id="ytick_1">
     <g id="line2d_15">
      <defs>
       <path d="
M0 0
L4 0" id="m728421d6d4" style="stroke:#000000;stroke-width:0.5;"/>
      </defs>
      <g>
       <use style="stroke:#000000;stroke-width:0.5;" x="73.35" xlink:href="#m728421d6d4" y="398.52"/>
      </g>
     </g>
     <g id="line2d_16">
      <defs>
       <path d="
M0 0
L-4 0" id="mcb0005524f" style="stroke:#000000;stroke-width:0.5;"/>
      </defs>
      <g>
       <use style="stroke:#000000;stroke-width:0.5;" x="528.12" xlink:href="#mcb0005524f" y="398.52"/>
      </g>
     </g>
     <g id="text_8">
      <!-- −6 -->
      <defs>
       <path d="
M10.5938 35.5
L73.1875 35.5
L73.1875 27.2031
L10.5938 27.2031
z
" id="BitstreamVeraSans-Roman-2212"/>
       <path d="
M33.0156 40.375
Q26.375 40.375 22.4844 35.8281
Q18.6094 31.2969 18.6094 23.3906
Q18.6094 15.5312 22.4844 10.9531
Q26.375 6.39062 33.0156 6.39062
Q39.6562 6.39062 43.5312 10.9531
Q47.4062 15.5312 47.4062 23.3906
Q47.4062 31.2969 43.5312 35.8281
Q39.6562 40.375 33.0156 40.375
M52.5938 71.2969
L52.5938 62.3125
Q48.875 64.0625 45.0938 64.9844
Q41.3125 65.9219 37.5938 65.9219
Q27.8281 65.9219 22.6719 59.3281
Q17.5312 52.7344 16.7969 39.4062
Q19.6719 43.6562 24.0156 45.9219
Q28.375 48.1875 33.5938 48.1875
Q44.5781 48.1875 50.9531 41.5156
Q57.3281 34.8594 57.3281 23.3906
Q57.3281 12.1562 50.6875 5.35938
Q44.0469 -1.42188 33.0156 -1.42188
Q20.3594 -1.42188 13.6719 8.26562
Q6.98438 17.9688 6.98438 36.375
Q6.98438 53.6562 15.1875 63.9375
Q23.3906 74.2188 37.2031 74.2188
Q40.9219 74.2188 44.7031 73.4844
Q48.4844 72.75 52.5938 71.2969" id="BitstreamVeraSans-Roman-36"/>
      </defs>
      <g transform="translate(53.68625 401.83125)scale(0.12 -0.12)">
       <use xlink:href="#BitstreamVeraSans-Roman-2212"/>
       <use x="83.7890625" xlink:href="#BitstreamVeraSans-Roman-36"/>
      </g>
     </g>
    </g>
    <g id="ytick_2">
     <g id="line2d_17">
      <g>
       <use style="stroke:#000000;stroke-width:0.5;" x="73.35" xlink:href="#m728421d6d4" y="339.48"/>
      </g>
     </g>
     <g id="line2d_18">
      <g>
       <use style="stroke:#000000;stroke-width:0.5;" x="528.12" xlink:href="#mcb0005524f" y="339.48"/>
      </g>
     </g>
     <g id="text_9">
      <!-- −4 -->
      <g transform="translate(53.60375 342.79125)scale(0.12 -0.12)">
       <use xlink:href="#BitstreamVeraSans-Roman-2212"/>
       <use x="83.7890625" xlink:href="#BitstreamVeraSans-Roman-34"/>
      </g>
     </g>
    </g>
    <g id="ytick_3">
     <g id="line2d_19">
      <g>
       <use style="stroke:#000000;stroke-width:0.5;" x="73.35" xlink:href="#m728421d6d4" y="280.44"/>
      </g>
     </g>
     <g id="line2d_20">
      <g>
       <use style="stroke:#000000;stroke-width:0.5;" x="528.12" xlink:href="#mcb0005524f" y="280.44"/>
      </g>
     </g>
     <g id="text_10">
      <!-- −2 -->
      <g transform="translate(54.1325 283.75125)scale(0.12 -0.12)">
       <use xlink:href="#BitstreamVeraSans-Roman-2212"/>
       <use x="83.7890625" xlink:href="#BitstreamVeraSans-Roman-32"/>
      </g>
     </g>
    </g>
    <g id="ytick_4">
     <g id="line2d_21">
      <g>
       <use style="stroke:#000000;stroke-width:0.5;" x="73.35" xlink:href="#m728421d6d4" y="221.4"/>
      </g>
     </g>
     <g id="line2d_22">
      <g>
       <use style="stroke:#000000;stroke-width:0.5;" x="528.12" xlink:href="#mcb0005524f" y="221.4"/>
      </g>
     </g>
     <g id="text_11">
      <!-- 0 -->
      <g transform="translate(63.303125 224.71125)scale(0.12 -0.12)">
       <use xlink:href="#BitstreamVeraSans-Roman-30"/>
      </g>
     </g>
    </g>
    <g id="ytick_5">
     <g id="line2d_23">
      <g>
       <use style="stroke:#000000;stroke-width:0.5;" x="73.35" xlink:href="#m728421d6d4" y="162.36"/>
      </g>
     </g>
     <g id="line2d_24">
      <g>
       <use style="stroke:#000000;stroke-width:0.5;" x="528.12" xlink:href="#mcb0005524f" y="162.36"/>
      </g>
     </g>
     <g id="text_12">
      <!-- 2 -->
      <g transform="translate(63.79625 165.67125)scale(0.12 -0.12)">
       <use xlink:href="#BitstreamVeraSans-Roman-32"/>
      </g>
     </g>
    </g>
    <g id="ytick_6">
     <g id="line2d_25">
      <g>
       <use style="stroke:#000000;stroke-width:0.5;" x="73.35" xlink:href="#m728421d6d4" y="103.32"/>
      </g>
     </g>
     <g id="line2d_26">
      <g>
       <use style="stroke:#000000;stroke-width:0.5;" x="528.12" xlink:href="#mcb0005524f" y="103.32"/>
      </g>
     </g>
     <g id="text_13">
      <!-- 4 -->
      <g transform="translate(62.975 106.63125)scale(0.12 -0.12)">
       <use xlink:href="#BitstreamVeraSans-Roman-34"/>
      </g>
     </g>
    </g>
    <g id="ytick_7">
     <g id="line2d_27">
      <g>
       <use style="stroke:#000000;stroke-width:0.5;" x="73.35" xlink:href="#m728421d6d4" y="44.28"/>
      </g>
     </g>
     <g id="line2d_28">
      <g>
       <use style="stroke:#000000;stroke-width:0.5;" x="528.12" xlink:href="#mcb0005524f" y="44.28"/>
      </g>
     </g>
     <g id="text_14">
      <!-- 6 -->
      <g transform="translate(63.30875 47.59125)scale(0.12 -0.12)">
       <use xlink:href="#BitstreamVeraSans-Roman-36"/>
      </g>
     </g>
    </g>
    <g id="text_15">
     <!-- 特征值 -->
     <defs>
      <path d="
M23.8281 10.1562
Q23.8281 -3.51562 24.2188 -8.20312
L18.3594 -10.1562
Q18.75 3.90625 18.75 8.59375
L18.75 47.2656
Q11.7188 35.9375 5.07812 28.9062
L3.90625 29.6875
Q11.3281 41.0156 17.1875 55.0781
Q23.0469 69.1406 26.1719 81.25
L34.375 76.1719
L30.4688 73.8281
Q24.2188 59.375 22.2656 54.2969
L26.9531 51.5625
L23.8281 49.2188
z

M44.9219 50.3906
L44.9219 38.6719
L75 38.6719
L75 50.3906
z

M44.9219 36.3281
L44.9219 24.6094
L75 24.6094
L75 36.3281
z

M44.9219 22.2656
L44.9219 10.5469
L75 10.5469
L75 22.2656
z

M44.9219 8.20312
L44.9219 -3.51562
L75 -3.51562
L75 8.20312
z

M55.4688 66.4062
Q55.8594 75.3906 55.4688 81.6406
L64.4531 77.3438
L61.3281 75
L60.9375 66.4062
L78.5156 66.4062
L83.5938 71.4844
L91.0156 64.0625
L60.9375 64.0625
L60.5469 52.7344
L74.2188 52.7344
L77.7344 56.6406
L83.5938 51.5625
L80.0781 49.2188
L80.0781 -3.51562
L83.5938 -3.51562
L88.6719 1.5625
L96.0938 -5.85938
L38.2812 -5.85938
Q33.2031 -5.85938 28.9062 -7.03125
L25.3906 -3.51562
L39.8438 -3.51562
L39.8438 39.8438
Q39.8438 44.5312 39.4531 55.8594
L44.9219 52.7344
L55.0781 52.7344
L55.4688 64.0625
L43.75 64.0625
Q38.6719 64.0625 34.375 62.8906
L30.8594 66.4062
z
" id="SimSun-503c"/>
      <path d="
M25 81.25
L32.4219 75.3906
L28.5156 73.4375
Q14.0625 55.4688 6.25 50.3906
L5.46875 51.5625
Q12.1094 58.5938 17.1875 66.5938
Q22.2656 74.6094 25 81.25
M25 40.625
L25 -7.42188
L19.1406 -10.1562
Q19.5312 -1.95312 19.5312 6.25
L19.5312 34.375
Q13.2812 27.3438 5.85938 21.875
L5.07812 23.0469
Q12.1094 30.0781 19.5312 41.0156
Q26.9531 51.9531 30.8594 61.7188
L37.8906 55.4688
L34.375 53.9062
Q29.2969 47.2656 25 40.625
M42.9688 34.375
Q42.9688 41.4062 42.5781 48.8281
L51.5625 44.1406
L48.0469 41.0156
L48.0469 0.390625
L62.5 0.390625
L62.5 69.5312
L50 69.5312
Q44.9219 69.5312 40.625 68.3594
L37.1094 71.875
L80.8594 71.875
L85.9375 76.9531
L93.3594 69.5312
L67.5781 69.5312
L67.5781 39.0625
L80.0781 39.0625
L84.7656 43.75
L91.7969 36.7188
L67.5781 36.7188
L67.5781 0.390625
L82.0312 0.390625
L87.5 5.85938
L95.3125 -1.95312
L40.625 -1.95312
Q35.5469 -1.95312 31.25 -3.125
L27.7344 0.390625
L42.9688 0.390625
z
" id="SimSun-5f81"/>
      <path d="
M40.625 66.0156
L59.375 66.0156
Q59.375 76.1719 58.9844 82.4219
L67.5781 78.9062
L64.8438 76.5625
L64.8438 66.0156
L75.7812 66.0156
L81.25 70.7031
L87.8906 63.6719
L64.8438 63.6719
L64.8438 47.2656
L82.8125 47.2656
L88.6719 52.7344
L95.7031 44.9219
L48.4375 44.9219
Q43.3594 44.9219 39.0625 43.75
L35.5469 47.2656
L59.375 47.2656
L59.375 63.6719
L53.5156 63.6719
Q48.4375 63.6719 44.1406 62.5
z

M54.2969 0.78125
Q63.2812 0 66.7969 0
Q68.75 0 70.1094 0.390625
Q71.4844 0.78125 71.4844 3.51562
L71.4844 28.125
L50 28.125
Q44.9219 28.125 40.625 26.9531
L37.1094 30.4688
L71.4844 30.4688
Q71.4844 39.8438 71.0938 44.1406
L80.0781 39.8438
L76.9531 37.1094
L76.9531 30.4688
L84.375 30.4688
L89.4531 35.5469
L96.4844 28.125
L76.9531 28.125
L76.9531 2.34375
Q77.3438 -6.64062 67.5781 -9.375
Q67.1875 -3.51562 54.2969 -0.78125
z

M44.9219 24.2188
Q51.9531 19.5312 54.2969 16.5938
Q56.6406 13.6719 56.6406 11.7188
Q56.6406 9.76562 54.875 7.42188
Q53.125 5.07812 52.3438 5.07812
Q51.1719 5.07812 50 9.76562
Q48.4375 16.4062 43.75 23.4375
z

M23.0469 -10.1562
Q23.4375 -2.73438 23.4375 25.3906
Q17.9688 22.2656 12.1094 18.75
L9.76562 15.2344
L4.6875 22.6562
Q8.59375 23.4375 23.4375 29.6875
L23.4375 51.1719
L12.5 51.1719
Q9.375 42.5781 5.07812 35.5469
L3.90625 36.3281
Q7.03125 46.0938 8.59375 55.2656
Q10.1562 64.4531 10.1562 69.5312
L18.75 66.4062
Q16.4062 64.8438 15.2344 60.9375
Q14.0625 57.0312 12.8906 53.5156
L23.4375 53.5156
Q23.4375 75.7812 23.0469 81.6406
L32.0312 77.3438
L28.9062 74.6094
L28.9062 53.5156
L33.5938 53.5156
L38.2812 58.2031
L44.9219 51.1719
L28.9062 51.1719
L28.9062 32.4219
L42.9688 38.2812
L43.75 37.1094
L28.9062 28.5156
Q28.9062 -1.17188 29.2969 -7.8125
z
" id="SimSun-7279"/>
     </defs>
     <g transform="translate(46.7990625 241.853125)rotate(-90.0)scale(0.14 -0.14)">
      <use xlink:href="#SimSun-7279"/>
      <use x="100.0" xlink:href="#SimSun-5f81"/>
      <use x="200.0" xlink:href="#SimSun-503c"/>
     </g>
    </g>
   </g>
  </g>
 </g>
 <defs>
  <clipPath id="p9061672a36">
   <rect height="354.24" width="454.77" x="73.35" y="44.28"/>
  </clipPath>
 </defs>
</svg>
