<?xml version="1.0" encoding="utf-8" standalone="no"?>
<!DOCTYPE svg PUBLIC "-//W3C//DTD SVG 1.1//EN"
  "http://www.w3.org/Graphics/SVG/1.1/DTD/svg11.dtd">
<!-- Created with matplotlib (http://matplotlib.org/) -->
<svg height="442pt" version="1.1" viewBox="0 0 586 442" width="586pt" xmlns="http://www.w3.org/2000/svg" xmlns:xlink="http://www.w3.org/1999/xlink">
 <defs>
  <style type="text/css">
*{stroke-linecap:butt;stroke-linejoin:round;}
  </style>
 </defs>
 <g id="figure_1">
  <g id="patch_1">
   <path d="
M0 442.8
L586.8 442.8
L586.8 0
L0 0
z
" style="fill:#ffffff;"/>
  </g>
  <g id="axes_1">
   <g id="patch_2">
    <path d="
M73.35 398.52
L528.12 398.52
L528.12 44.28
L73.35 44.28
z
" style="fill:#ffffff;"/>
   </g>
   <g id="line2d_1">
    <path clip-path="url(#p9061672a36)" d="
M73.35 229.313
L73.5774 352.637
L73.8048 335.649
L74.0322 242.538
L74.2595 383.271
L74.4869 126.179
L74.7143 169.754
L74.9417 89.3107
L75.1691 93.591
L75.3965 103.652
L75.6239 137.009
L75.8512 215.304
L76.0786 165.827
L76.306 88.8248
L76.5334 94.8738
L76.7608 115.131
L76.9882 179.884
L77.2155 84.651
L77.4429 85.5743
L77.6703 86.9838
L77.8977 89.3531
L78.1251 93.7106
L78.3525 103.512
L78.5799 136.912
L78.8072 214.302
L79.0346 148.698
L79.262 126.229
L79.4894 193.782
L79.7168 92.6964
L79.9442 109.297
L80.1716 168.498
L80.3989 96.821
L80.6263 114.627
L80.8537 146.618
L81.0811 147.139
L81.3085 159.254
L81.5359 123.865
L81.7632 218.687
L81.9906 86.177
L82.218 88.6505
L82.4454 93.7048
L82.6728 106.809
L82.9002 166.252
L83.1276 104.367
L83.3549 150.913
L83.5823 273.801
L83.8097 97.1445
L84.0371 121.146
L84.2645 195.634
L84.4919 84.4216
L84.7193 84.715
L85.6288 88.0046
L86.5383 92.9944
L86.7657 94.0072
L86.9931 95.5273
L87.2205 96.288
L87.4479 97.996
L88.3574 108.245
L88.5848 109.521
L88.8122 109.715
L89.7217 109.897
L90.1765 110.168
L90.6313 110.676
L91.086 111.682
L91.3134 112.61
L91.5408 114.201
L91.7682 117.346
L91.9956 124.29
L92.223 145.202
L92.4503 200.563
L92.6777 113.842
L92.9051 116.231
L93.1325 121.654
L93.3599 138.77
L93.5873 199.157
L93.8147 115.775
L94.042 119.999
L94.2694 132.207
L94.4968 182.109
L94.7242 145.675
L94.9516 230.735
L95.179 116.952
L95.4063 121.794
L95.6337 135.189
L95.8611 188.324
L96.0885 213.568
L96.3159 148.822
L96.5433 182.97
L96.7707 113.73
L96.998 117.169
L97.2254 127.034
L97.4528 173.862
L97.6802 162.909
L97.9076 209.613
L98.135 114.217
L98.3624 120.655
L98.5897 162.579
L98.8171 127.41
L99.0445 222.739
L99.2719 90.9886
L99.4993 103.986
L99.7267 136.935
L99.954 212.91
L100.181 110.041
L100.409 110.345
L101.091 110.628
L101.318 110.826
L101.546 111.231
L101.773 112.215
L102.228 113.317
L102.455 114.398
L102.683 116.438
L102.91 121.274
L103.137 138.331
L103.365 215.322
L103.592 112.298
L104.047 113.407
L104.274 114.527
L104.502 116.637
L104.729 121.543
L104.957 137.843
L105.184 205.397
L105.411 114.979
L105.639 116.837
L105.866 120.332
L106.093 129.483
L106.548 211.38
L106.776 124.72
L107.003 146.743
L107.23 244.582
L107.458 125.32
L107.685 154.848
L107.913 243.909
L108.14 114.355
L108.822 118.025
L109.049 121.24
L109.277 130.468
L109.504 163.382
L109.732 239.714
L109.959 108.596
L110.414 112.501
L110.869 114.014
L111.096 114.312
L112.915 114.661
L113.142 114.804
L113.37 115.201
L114.052 118.369
L114.507 119.966
L114.734 120.292
L114.961 121.239
L115.416 124.144
L115.644 124.798
L116.098 125.054
L116.553 125.291
L116.781 125.705
L117.235 127.324
L117.69 127.84
L117.917 128.526
L119.509 138.848
L119.737 140.254
L120.191 146.342
L120.419 152.756
L120.646 172.421
L120.873 235.147
L121.101 128.751
L121.328 136.666
L122.01 147.083
L122.238 155.097
L122.465 181.875
L122.693 256.544
L122.92 141.132
L123.375 143.298
L124.284 150.992
L124.512 154.747
L124.739 164.641
L125.194 213.191
L125.421 226.488
L125.649 199.377
L125.876 200.787
L126.103 228.25
L126.331 199.236
L126.558 219.898
L126.785 211.904
L127.013 219.027
L127.24 232.37
L127.468 288.481
L127.922 168.455
L128.15 198.18
L128.377 204.873
L128.605 197.088
L129.287 204.651
L129.514 205.466
L129.741 210.029
L129.969 218.15
L130.196 239.475
L130.424 341.492
L130.651 244.101
L130.878 307.551
L131.106 316.349
L131.333 393.058
L131.561 227.203
L131.788 291.117
L132.015 251.067
L132.243 170.674
L132.47 331.143
L132.697 210.824
L132.925 257.343
L133.152 329.578
L133.38 190.032
L133.607 203.5
L133.834 201.414
L134.062 206.075
L134.289 226.382
L134.517 325.964
L134.744 194.753
L134.971 195.106
L135.199 198.458
L135.426 223.048
L135.653 324.394
L135.881 221.651
L136.108 184.941
L136.336 189.973
L136.79 190.691
L137.245 190.902
L137.927 190.914
L141.338 190.637
L142.475 190.775
L143.385 191.118
L143.839 191.468
L144.294 192.102
L144.522 192.638
L144.749 193.473
L144.976 194.917
L145.204 197.857
L145.431 205.738
L145.658 238.008
L145.886 301.476
L146.113 195.496
L146.341 194.461
L146.568 194.186
L146.795 194.302
L147.023 194.865
L147.25 196.223
L147.478 199.605
L147.705 210.746
L147.932 265.048
L148.16 229.277
L148.387 323.102
L148.614 203.053
L148.842 193.728
L149.069 193.871
L149.297 194.322
L149.524 195.267
L149.751 197.233
L149.979 202.015
L150.206 218.378
L150.434 289.708
L150.661 197.953
L150.888 203.545
L151.116 226.417
L151.343 312.119
L151.57 197.77
L151.798 195.574
L152.025 198.132
L152.253 208.712
L152.48 264.79
L152.707 216.664
L152.935 299.188
L153.162 205.495
L153.39 225.944
L153.617 311.053
L153.844 224.067
L154.072 293.477
L154.299 215.759
L154.526 259.444
L154.754 366.401
L154.981 239.631
L155.209 326.969
L155.436 319.546
L155.663 205.544
L155.891 199.855
L156.346 204.384
L156.573 208.63
L156.8 218.611
L157.255 314.422
L157.482 223.865
L157.71 253.121
L157.937 320.305
L158.165 345.896
L158.392 337.03
L158.619 246.118
L158.847 228.48
L159.074 244.925
L159.302 305.956
L159.529 310.235
L159.756 397.482
L159.984 257.291
L160.211 300.778
L160.438 270.859
L160.666 366.382
L160.893 370.267
L161.121 337.711
L161.348 372.957
L161.575 300.938
L161.803 288.278
L162.03 179.448
L162.258 161.371
L162.485 162.773
L162.94 163.774
L163.394 164.457
L163.849 165.719
L164.077 166.962
L164.304 172.614
L164.531 188.44
L164.759 191.217
L165.214 192.376
L165.668 194.121
L165.896 195.718
L166.123 198.169
L166.35 202.374
L166.578 209.606
L166.805 226.008
L167.033 273.052
L167.26 247.301
L167.487 322.88
L167.715 224.486
L167.942 223.788
L168.17 225.446
L168.397 229.845
L168.624 236.579
L168.852 251.486
L169.079 282.533
L169.306 356.893
L169.534 322.36
L169.989 389.967
L170.216 386.605
L170.443 145.985
L170.671 185.18
L170.898 149.348
L171.126 194.047
L171.353 182.968
L171.58 312.126
L171.808 165.744
L172.262 189.624
L172.49 246.859
L172.717 174.364
L172.945 197.355
L173.172 314.533
L173.399 161.944
L174.536 162.907
L175.218 163.537
L175.446 163.895
L175.673 164.489
L175.901 165.58
L176.355 170.146
L176.583 175.886
L176.81 189.678
L177.038 229.476
L177.265 299.523
L177.492 183.86
L177.947 250.717
L178.174 170.636
L178.402 178.368
L178.629 190.101
L178.857 223.834
L179.084 226.271
L179.311 225.91
L179.539 243.915
L179.766 206.347
L179.994 321.021
L180.221 214.396
L180.448 195.364
L180.676 284.308
L180.903 170.351
L181.13 165.336
L182.04 202.109
L182.267 217.569
L182.495 259.711
L182.722 340.243
L182.95 201.262
L183.177 220.531
L183.404 222.699
L183.859 231.216
L184.314 251.774
L184.541 301.485
L184.769 238.308
L184.996 255.789
L185.223 315.779
L185.451 223.694
L185.906 235.009
L186.133 246.017
L186.588 289.951
L186.815 258.102
L187.043 314.409
L187.27 222.408
L187.725 233.243
L187.952 243.679
L188.407 298.997
L188.634 245.854
L189.089 293.048
L189.316 263.475
L189.544 304.935
L189.771 238.813
L189.999 263.248
L190.226 302.204
L190.453 253.282
L190.681 281.338
L190.908 290.663
L191.135 289.428
L191.363 300.988
L191.59 321.41
L191.818 315.671
L192.045 320.705
L192.272 314.458
L192.5 333.4
L192.727 306.509
L192.955 379.97
L193.182 269.51
L193.409 342.983
L193.637 303.139
L193.864 223.284
L194.091 233.562
L194.319 274.57
L194.546 388.317
L195.001 232.256
L195.228 240.559
L195.683 288.903
L195.911 266.765
L196.138 284.819
L196.365 276.748
L196.593 280.623
L197.047 284.911
L197.275 289.438
L197.502 299.493
L197.73 332.406
L197.957 393.689
L198.184 284.141
L198.412 276.157
L198.639 283.191
L198.867 294.487
L199.321 339.295
L199.549 335.241
L199.776 361.275
L200.003 298.393
L200.231 371.777
L200.458 363.916
L200.686 294.631
L200.913 274.628
L201.14 360.739
L201.595 315.185
L201.823 381.794
L202.05 375.22
L202.277 221.506
L202.505 242.307
L202.732 363.978
L202.959 349.558
L203.187 216.922
L203.414 219.492
L203.642 226.99
L203.869 261.954
L204.096 363.693
L204.324 232.681
L204.551 251.604
L205.006 263.996
L205.461 317.342
L205.688 290.302
L205.915 312.32
L206.143 297.722
L206.37 301.756
L206.598 302.01
L207.507 302.428
L207.735 302.826
L207.962 303.608
L208.189 305.135
L208.417 308.386
L208.644 318.621
L208.871 388.041
L209.099 370.616
L209.326 229.485
L210.008 381.187
L210.236 352.451
L210.463 279.855
L210.691 340.576
L210.918 300.548
L211.145 233.896
L211.373 241.799
L211.6 262.24
L211.827 300.08
L212.055 369.354
L212.282 324.31
L212.51 393.545
L212.737 374.42
L212.964 316.244
L213.192 331.993
L213.419 376.525
L213.647 352.956
L213.874 367.621
L214.101 340.83
L214.329 378.014
L214.556 348.742
L214.783 361.977
L215.011 332.296
L215.238 382.654
L215.466 386.488
L215.92 373.895
L216.148 378.535
L216.603 397.298
L216.83 355.324
L217.057 386.073
L217.285 375.845
L217.512 384.115
L217.739 372.779
L217.967 375.955
L218.194 343
L218.422 373.885
L218.649 361.446
L218.876 397.119
L219.104 349.273
L219.331 365.945
L219.559 370.356
L219.786 387.539
L220.013 376.586
L220.241 375.629
L220.468 346.252
L220.695 364.996
L220.923 338.982
L221.378 384.238
L221.605 361.661
L221.832 327.989
L222.06 396.578
L222.287 380.132
L222.515 397.007
L222.742 387.507
L222.969 387.885
L223.197 387.433
L223.424 387.308
L223.651 383.606
L223.879 365.925
L224.106 371.402
L224.334 369.326
L224.561 387.331
L224.788 388.529
L225.016 388.447
L225.243 388.745
L225.925 388.847
L237.522 390.482
L244.571 391.202
L253.439 391.87
L264.808 392.494
L279.816 393.082
L299.825 393.631
L327.112 394.144
L364.858 394.619
L418.52 395.056
L496.741 395.456
L527.893 395.572
L527.893 395.572" style="fill:none;stroke:#0000ff;stroke-linecap:square;"/>
   </g>
   <g id="line2d_2">
    <path clip-path="url(#p9061672a36)" d="
M73.35 236.878
L73.5774 298.868
L73.8048 328.12
L74.0322 342.131
L74.2595 348.076
L74.4869 349.528
L74.7143 348.466
L75.1691 342.98
L76.306 327.607
L77.2155 318.456
L78.1251 311.191
L79.0346 305.482
L79.7168 302.33
L80.3989 300.175
L80.8537 299.253
L81.3085 298.693
L81.7632 298.446
L82.218 298.464
L82.6728 298.703
L83.3549 299.395
L84.2645 300.786
L85.4014 303.028
L87.4479 307.723
L91.086 316.066
L96.0885 326.793
L99.4993 333.781
L99.7267 334.134
L99.954 334.732
L100.181 334.902
L100.409 335.788
L100.636 335.465
L100.864 337.135
L101.091 335.517
L101.318 339.214
L101.546 334.305
L101.773 342.966
L102.001 330.058
L102.228 349.895
L102.455 319.507
L102.683 359.516
L102.91 309.153
L103.137 360.624
L103.365 340.563
L103.592 373.585
L103.82 319.533
L104.047 369.053
L104.274 321.557
L104.502 367.456
L104.729 325.981
L104.957 363.959
L105.184 329.296
L105.411 359.01
L105.639 335.035
L105.866 362.653
L106.093 337.773
L106.321 368.305
L106.548 336.85
L106.776 361.278
L107.003 341.337
L107.23 363.101
L107.458 342.543
L107.685 359.921
L107.913 343.44
L108.14 359.44
L108.367 343.968
L108.595 359.067
L108.822 344.554
L109.049 358.752
L109.277 345.368
L109.504 358.299
L109.732 346.56
L109.959 357.54
L110.186 348.118
L110.414 356.537
L110.641 349.788
L110.869 355.583
L111.096 351.277
L111.323 354.933
L111.551 352.461
L111.778 354.642
L112.005 353.368
L112.233 354.64
L112.46 354.077
L112.688 354.828
L112.915 354.657
L113.142 355.129
L113.37 355.16
L113.597 355.49
L113.825 355.62
L114.507 356.283
L119.737 360.573
L122.693 362.604
L125.876 364.518
L129.287 366.307
L132.925 367.971
L137.018 369.597
L141.566 371.159
L146.568 372.639
L152.253 374.081
L158.619 375.459
L165.896 376.797
L174.082 378.07
L183.404 379.291
L194.091 380.465
L206.598 381.608
L221.15 382.708
L238.204 383.767
L258.214 384.779
L282.089 385.757
L310.513 386.691
L344.62 387.583
L386.004 388.436
L436.711 389.251
L499.469 390.029
L527.893 390.322
L527.893 390.322" style="fill:none;stroke:#ff0000;stroke-linecap:square;"/>
   </g>
   <g id="patch_3">
    <path d="
M73.35 44.28
L528.12 44.28" style="fill:none;stroke:#000000;stroke-linecap:square;stroke-linejoin:miter;"/>
   </g>
   <g id="patch_4">
    <path d="
M528.12 398.52
L528.12 44.28" style="fill:none;stroke:#000000;stroke-linecap:square;stroke-linejoin:miter;"/>
   </g>
   <g id="patch_5">
    <path d="
M73.35 398.52
L528.12 398.52" style="fill:none;stroke:#000000;stroke-linecap:square;stroke-linejoin:miter;"/>
   </g>
   <g id="patch_6">
    <path d="
M73.35 398.52
L73.35 44.28" style="fill:none;stroke:#000000;stroke-linecap:square;stroke-linejoin:miter;"/>
   </g>
   <g id="matplotlib.axis_1">
    <g id="xtick_1">
     <g id="line2d_3">
      <defs>
       <path d="
M0 0
L0 -4" id="m93b0483c22" style="stroke:#000000;stroke-width:0.5;"/>
      </defs>
      <g>
       <use style="stroke:#000000;stroke-width:0.5;" x="73.35" xlink:href="#m93b0483c22" y="398.52"/>
      </g>
     </g>
     <g id="line2d_4">
      <defs>
       <path d="
M0 0
L0 4" id="m741efc42ff" style="stroke:#000000;stroke-width:0.5;"/>
      </defs>
      <g>
       <use style="stroke:#000000;stroke-width:0.5;" x="73.35" xlink:href="#m741efc42ff" y="44.28"/>
      </g>
     </g>
     <g id="text_1">
      <!-- 0 -->
      <defs>
       <path d="
M31.7812 66.4062
Q24.1719 66.4062 20.3281 58.9062
Q16.5 51.4219 16.5 36.375
Q16.5 21.3906 20.3281 13.8906
Q24.1719 6.39062 31.7812 6.39062
Q39.4531 6.39062 43.2812 13.8906
Q47.125 21.3906 47.125 36.375
Q47.125 51.4219 43.2812 58.9062
Q39.4531 66.4062 31.7812 66.4062
M31.7812 74.2188
Q44.0469 74.2188 50.5156 64.5156
Q56.9844 54.8281 56.9844 36.375
Q56.9844 17.9688 50.5156 8.26562
Q44.0469 -1.42188 31.7812 -1.42188
Q19.5312 -1.42188 13.0625 8.26562
Q6.59375 17.9688 6.59375 36.375
Q6.59375 54.8281 13.0625 64.5156
Q19.5312 74.2188 31.7812 74.2188" id="BitstreamVeraSans-Roman-30"/>
      </defs>
      <g transform="translate(70.3265625 411.638125)scale(0.12 -0.12)">
       <use xlink:href="#BitstreamVeraSans-Roman-30"/>
      </g>
     </g>
    </g>
    <g id="xtick_2">
     <g id="line2d_5">
      <g>
       <use style="stroke:#000000;stroke-width:0.5;" x="187.0425" xlink:href="#m93b0483c22" y="398.52"/>
      </g>
     </g>
     <g id="line2d_6">
      <g>
       <use style="stroke:#000000;stroke-width:0.5;" x="187.0425" xlink:href="#m741efc42ff" y="44.28"/>
      </g>
     </g>
     <g id="text_2">
      <!-- 500 -->
      <defs>
       <path d="
M10.7969 72.9062
L49.5156 72.9062
L49.5156 64.5938
L19.8281 64.5938
L19.8281 46.7344
Q21.9688 47.4688 24.1094 47.8281
Q26.2656 48.1875 28.4219 48.1875
Q40.625 48.1875 47.75 41.5
Q54.8906 34.8125 54.8906 23.3906
Q54.8906 11.625 47.5625 5.09375
Q40.2344 -1.42188 26.9062 -1.42188
Q22.3125 -1.42188 17.5469 -0.640625
Q12.7969 0.140625 7.71875 1.70312
L7.71875 11.625
Q12.1094 9.23438 16.7969 8.0625
Q21.4844 6.89062 26.7031 6.89062
Q35.1562 6.89062 40.0781 11.3281
Q45.0156 15.7656 45.0156 23.3906
Q45.0156 31 40.0781 35.4375
Q35.1562 39.8906 26.7031 39.8906
Q22.75 39.8906 18.8125 39.0156
Q14.8906 38.1406 10.7969 36.2812
z
" id="BitstreamVeraSans-Roman-35"/>
      </defs>
      <g transform="translate(176.4515625 411.638125)scale(0.12 -0.12)">
       <use xlink:href="#BitstreamVeraSans-Roman-35"/>
       <use x="63.623046875" xlink:href="#BitstreamVeraSans-Roman-30"/>
       <use x="127.24609375" xlink:href="#BitstreamVeraSans-Roman-30"/>
      </g>
     </g>
    </g>
    <g id="xtick_3">
     <g id="line2d_7">
      <g>
       <use style="stroke:#000000;stroke-width:0.5;" x="300.735" xlink:href="#m93b0483c22" y="398.52"/>
      </g>
     </g>
     <g id="line2d_8">
      <g>
       <use style="stroke:#000000;stroke-width:0.5;" x="300.735" xlink:href="#m741efc42ff" y="44.28"/>
      </g>
     </g>
     <g id="text_3">
      <!-- 1000 -->
      <defs>
       <path d="
M12.4062 8.29688
L28.5156 8.29688
L28.5156 63.9219
L10.9844 60.4062
L10.9844 69.3906
L28.4219 72.9062
L38.2812 72.9062
L38.2812 8.29688
L54.3906 8.29688
L54.3906 0
L12.4062 0
z
" id="BitstreamVeraSans-Roman-31"/>
      </defs>
      <g transform="translate(286.5225 411.638125)scale(0.12 -0.12)">
       <use xlink:href="#BitstreamVeraSans-Roman-31"/>
       <use x="63.623046875" xlink:href="#BitstreamVeraSans-Roman-30"/>
       <use x="127.24609375" xlink:href="#BitstreamVeraSans-Roman-30"/>
       <use x="190.869140625" xlink:href="#BitstreamVeraSans-Roman-30"/>
      </g>
     </g>
    </g>
    <g id="xtick_4">
     <g id="line2d_9">
      <g>
       <use style="stroke:#000000;stroke-width:0.5;" x="414.4275" xlink:href="#m93b0483c22" y="398.52"/>
      </g>
     </g>
     <g id="line2d_10">
      <g>
       <use style="stroke:#000000;stroke-width:0.5;" x="414.4275" xlink:href="#m741efc42ff" y="44.28"/>
      </g>
     </g>
     <g id="text_4">
      <!-- 1500 -->
      <g transform="translate(400.215 411.638125)scale(0.12 -0.12)">
       <use xlink:href="#BitstreamVeraSans-Roman-31"/>
       <use x="63.623046875" xlink:href="#BitstreamVeraSans-Roman-35"/>
       <use x="127.24609375" xlink:href="#BitstreamVeraSans-Roman-30"/>
       <use x="190.869140625" xlink:href="#BitstreamVeraSans-Roman-30"/>
      </g>
     </g>
    </g>
    <g id="xtick_5">
     <g id="line2d_11">
      <g>
       <use style="stroke:#000000;stroke-width:0.5;" x="528.12" xlink:href="#m93b0483c22" y="398.52"/>
      </g>
     </g>
     <g id="line2d_12">
      <g>
       <use style="stroke:#000000;stroke-width:0.5;" x="528.12" xlink:href="#m741efc42ff" y="44.28"/>
      </g>
     </g>
     <g id="text_5">
      <!-- 2000 -->
      <defs>
       <path d="
M19.1875 8.29688
L53.6094 8.29688
L53.6094 0
L7.32812 0
L7.32812 8.29688
Q12.9375 14.1094 22.625 23.8906
Q32.3281 33.6875 34.8125 36.5312
Q39.5469 41.8438 41.4219 45.5312
Q43.3125 49.2188 43.3125 52.7812
Q43.3125 58.5938 39.2344 62.25
Q35.1562 65.9219 28.6094 65.9219
Q23.9688 65.9219 18.8125 64.3125
Q13.6719 62.7031 7.8125 59.4219
L7.8125 69.3906
Q13.7656 71.7812 18.9375 73
Q24.125 74.2188 28.4219 74.2188
Q39.75 74.2188 46.4844 68.5469
Q53.2188 62.8906 53.2188 53.4219
Q53.2188 48.9219 51.5312 44.8906
Q49.8594 40.875 45.4062 35.4062
Q44.1875 33.9844 37.6406 27.2188
Q31.1094 20.4531 19.1875 8.29688" id="BitstreamVeraSans-Roman-32"/>
      </defs>
      <g transform="translate(513.688125 411.638125)scale(0.12 -0.12)">
       <use xlink:href="#BitstreamVeraSans-Roman-32"/>
       <use x="63.623046875" xlink:href="#BitstreamVeraSans-Roman-30"/>
       <use x="127.24609375" xlink:href="#BitstreamVeraSans-Roman-30"/>
       <use x="190.869140625" xlink:href="#BitstreamVeraSans-Roman-30"/>
      </g>
     </g>
    </g>
    <g id="text_6">
     <!-- 迭代次数 -->
     <defs>
      <path d="
M86.7188 -1.17188
L91.7969 16.0156
L93.3594 16.0156
Q91.7969 2.73438 92.375 -1.17188
Q92.9688 -5.07812 94.1406 -8.20312
Q94.9219 -10.1562 92.9688 -10.1562
Q92.1875 -10.1562 88.4688 -9.17188
Q84.7656 -8.20312 76.9531 -2.34375
Q69.1406 3.51562 64.0625 13.2812
Q58.9844 23.0469 56.25 46.4844
L40.2344 45.7031
L36.7188 44.5312
L32.8125 47.6562
L55.8594 48.8281
Q55.0781 58.5938 54.6875 65.2344
Q54.2969 71.875 53.9062 79.2969
L63.2812 74.6094
L60.1562 71.875
Q60.5469 56.6406 61.3281 49.2188
L80.4688 50.3906
L85.5469 55.4688
L93.3594 48.8281
L61.7188 46.875
Q64.0625 23.8281 71.0938 13.4688
Q78.125 3.125 86.7188 -1.17188
M69.9219 73.4375
L70.3125 75
Q85.1562 69.9219 86.5156 67.1875
Q87.8906 64.4531 87.8906 63.2812
Q87.8906 61.7188 86.7188 59.9531
Q85.5469 58.2031 84.7656 58.2031
Q83.2031 58.2031 81.6406 61.7188
Q78.5156 66.7969 69.9219 73.4375
M28.125 48.4375
L28.125 6.25
Q28.125 0 28.5156 -7.42188
L22.2656 -10.1562
Q22.6562 -0.390625 22.6562 5.85938
L22.6562 48.8281
Q13.2812 33.9844 4.6875 26.1719
L3.51562 27.3438
Q8.59375 33.9844 13.0781 41.5938
Q17.5781 49.2188 22.0625 59.1719
Q26.5625 69.1406 30.0781 82.0312
L38.6719 76.5625
Q35.5469 75 32.0312 67.9688
Q28.5156 60.5469 25.3906 54.6875
L30.8594 51.1719
z
" id="SimSun-4ee3"/>
      <path d="
M29.2969 23.8281
Q26.1719 18.75 23.4375 14.0625
Q28.5156 12.8906 35.5469 11.3281
Q39.0625 15.2344 42.5781 23.8281
z

M13.2812 76.5625
Q20.7031 71.875 22.2656 69.5312
Q23.8281 67.1875 23.8281 66.0156
Q23.8281 64.0625 22.4531 62.1094
Q21.0938 60.1562 20.3125 60.1562
Q19.1406 60.1562 17.9688 64.0625
Q16.4062 69.5312 12.1094 75.7812
z

M46.875 77.7344
L53.9062 73.0469
Q50.7812 72.2656 48.4375 69.1406
Q45.7031 66.0156 39.4531 59.7656
L38.2812 60.5469
Q45.7031 72.2656 46.875 77.7344
M29.2969 82.0312
L37.8906 78.125
L34.7656 75.3906
L34.7656 57.4219
L44.5312 57.4219
L48.8281 61.7188
L55.4688 55.0781
L34.7656 55.0781
L34.7656 51.5625
Q43.75 49.6094 45.8906 47.8438
Q48.0469 46.0938 48.0469 43.3594
Q48.0469 42.1875 47.6562 40.4219
Q47.2656 38.6719 46.4844 38.6719
Q45.7031 38.6719 43.75 41.4062
Q40.625 45.7031 34.7656 49.6094
L34.7656 37.5
L30.0781 34.375
L35.5469 32.0312
Q33.5938 31.25 30.4688 26.1719
L42.5781 26.1719
L45.3125 29.6875
L51.1719 24.6094
L47.6562 22.6562
Q43.75 13.6719 40.625 10.1562
Q46.875 8.59375 49.0156 6.82812
Q51.1719 5.07812 51.1719 2.34375
Q51.1719 -0.390625 50 -0.390625
Q48.8281 -0.390625 47.2656 1.17188
Q42.9688 4.29688 37.5 6.64062
Q23.8281 -4.29688 5.07812 -7.8125
L4.6875 -6.64062
Q22.6562 -0.78125 32.8125 8.59375
Q25 11.3281 17.5781 12.5
Q19.1406 14.8438 23.8281 23.8281
L18.75 23.8281
Q13.6719 23.8281 9.375 22.6562
L5.85938 26.1719
L24.6094 26.1719
Q26.1719 30.0781 27.7344 35.5469
L29.6875 34.7656
L29.6875 50.7812
Q19.1406 38.6719 5.46875 32.0312
L4.6875 33.2031
Q19.1406 43.3594 26.5625 55.0781
L19.5312 55.0781
Q14.4531 55.0781 10.1562 53.9062
L6.64062 57.4219
L29.6875 57.4219
Q29.6875 71.4844 29.2969 82.0312
M61.3281 55.0781
Q63.2812 32.4219 70.7031 17.1875
Q76.9531 30.4688 78.5156 55.0781
z

M63.2812 82.0312
L72.2656 76.9531
Q69.1406 75.7812 67.5781 72.2656
Q66.0156 68.75 61.7188 57.4219
L83.9844 57.4219
L88.6719 62.1094
L95.7031 55.0781
L84.375 55.0781
Q82.0312 26.1719 74.2188 12.1094
Q83.2031 1.17188 95.3125 -1.5625
L95.3125 -3.125
Q87.8906 -4.29688 87.5 -7.8125
Q77.3438 -0.78125 70.7031 8.20312
Q57.8125 -4.29688 39.8438 -10.1562
L39.0625 -8.98438
Q57.0312 -0.78125 67.5781 12.5
Q60.1562 30.8594 59.7656 52.7344
Q55.8594 42.5781 48.4375 33.5938
L47.2656 34.375
Q56.6406 50 63.2812 82.0312" id="SimSun-6570"/>
      <path d="
M63.6719 37.8906
L62.1094 31.6406
Q78.9062 23.8281 83.5938 19.9219
Q88.2812 16.0156 88.2812 12.5
Q88.2812 10.9375 87.5 9.17188
Q86.7188 7.42188 85.9375 7.42188
Q84.7656 7.42188 82.8125 10.9375
Q79.2969 16.4062 73.4375 21.2812
Q67.5781 26.1719 61.7188 30.4688
Q54.6875 14.0625 33.9844 6.64062
L33.2031 7.8125
Q55.0781 19.5312 58.2031 37.8906
L41.7969 37.8906
Q38.2812 37.8906 33.9844 36.7188
L30.4688 40.2344
L58.5938 40.2344
Q59.7656 49.2188 59.7656 58.5938
L45.3125 58.5938
Q40.625 49.2188 33.5938 42.5781
L32.8125 43.3594
Q37.5 51.1719 40.0312 58.3906
Q42.5781 65.625 43.75 73.8281
L51.1719 69.9219
Q48.8281 67.9688 46.0938 60.9375
L59.7656 60.9375
Q59.7656 68.75 59.375 80.4688
L68.3594 76.5625
L65.2344 73.8281
L65.2344 60.9375
L76.5625 60.9375
L81.25 65.625
L87.8906 58.5938
L65.2344 58.5938
Q64.8438 47.2656 64.0625 40.2344
L82.8125 40.2344
L87.5 44.9219
L94.1406 37.8906
z

M24.6094 13.6719
Q28.125 9.76562 34.7656 5.46875
Q41.4062 1.17188 58.2031 0.578125
Q75 0 95.7031 2.73438
L95.7031 1.17188
Q88.6719 -1.17188 88.2812 -5.07812
Q69.9219 -5.46875 58.2031 -4.875
Q46.4844 -4.29688 40.0312 -1.5625
Q33.5938 1.17188 28.9062 6.25
Q23.8281 11.3281 22.4531 11.7188
Q21.0938 12.1094 16.4062 7.42188
Q11.7188 2.73438 8.98438 -1.95312
L3.90625 3.51562
Q11.3281 8.59375 19.5312 13.6719
L19.5312 45.7031
L14.4531 45.7031
Q11.3281 45.7031 7.03125 44.5312
L3.51562 48.0469
L17.5781 48.0469
L22.2656 52.7344
L28.9062 46.4844
L24.6094 44.1406
z

M14.8438 78.5156
L15.2344 79.6875
Q21.0938 76.5625 24.6094 73.8281
Q28.125 71.0938 28.125 68.1562
Q28.125 65.2344 26.75 64.0625
Q25.3906 62.8906 25 62.8906
Q23.4375 62.8906 21.875 67.1875
Q19.9219 73.0469 14.8438 78.5156" id="SimSun-8fed"/>
      <path d="
M76.1719 42.5781
L82.4219 56.25
L50.3906 56.25
Q47.2656 50.7812 43.75 45.1094
Q40.2344 39.4531 32.4219 31.6406
L31.25 32.8125
Q40.2344 44.1406 45.7031 58.5938
Q51.1719 73.0469 52.3438 81.6406
L61.7188 76.9531
Q58.5938 75.3906 57.0312 71.875
Q55.4688 68.3594 51.1719 58.5938
L82.0312 58.5938
L86.3281 62.8906
L93.3594 55.4688
Q89.4531 54.6875 86.7188 52.3438
Q83.9844 50 77.3438 41.7969
z

M63.2812 45.3125
Q60.9375 19.1406 49.6094 6.82812
Q38.2812 -5.46875 22.6562 -10.1562
L21.875 -8.98438
Q41.7969 0 49.6094 14.25
Q57.4219 28.5156 57.8125 53.125
L66.7969 48.4375
L64.4531 46.4844
Q67.1875 26.5625 75.1875 14.25
Q83.2031 1.95312 96.0938 -2.73438
L95.7031 -3.90625
Q89.8438 -3.51562 87.1094 -7.8125
Q77.3438 -0.390625 70.8906 12.8906
Q64.4531 26.1719 63.2812 45.3125
M11.7188 77.3438
Q19.9219 73.0469 23.2344 69.5312
Q26.5625 66.0156 26.5625 63.6719
Q26.5625 61.3281 24.7969 58.9844
Q23.0469 56.6406 22.6562 56.6406
Q21.0938 56.6406 19.9219 61.7188
Q17.9688 68.75 10.9375 76.1719
z

M6.64062 25.7812
Q9.375 25.3906 11.7188 25.3906
Q15.2344 25.3906 17.1875 26.9531
Q19.1406 28.5156 35.5469 67.1875
L37.1094 66.4062
Q21.875 26.5625 21.0938 25
Q20.3125 23.4375 20.3125 18.5469
Q20.3125 13.6719 21.4844 5.46875
Q22.6562 -3.125 18.9375 -2.73438
Q15.2344 -2.34375 14.4531 -0.390625
Q13.6719 1.5625 13.6719 3.125
Q13.6719 4.6875 14.4531 8.98438
Q15.625 15.2344 15.2344 18.5469
Q14.8438 21.875 6.64062 24.2188
z
" id="SimSun-6b21"/>
     </defs>
     <g transform="translate(273.281875 430.2353125)scale(0.14 -0.14)">
      <use xlink:href="#SimSun-8fed"/>
      <use x="100.0" xlink:href="#SimSun-4ee3"/>
      <use x="200.0" xlink:href="#SimSun-6b21"/>
      <use x="300.0" xlink:href="#SimSun-6570"/>
     </g>
    </g>
   </g>
   <g id="matplotlib.axis_2">
    <g id="ytick_1">
     <g id="line2d_13">
      <defs>
       <path d="
M0 0
L4 0" id="m728421d6d4" style="stroke:#000000;stroke-width:0.5;"/>
      </defs>
      <g>
       <use style="stroke:#000000;stroke-width:0.5;" x="73.35" xlink:href="#m728421d6d4" y="398.52"/>
      </g>
     </g>
     <g id="line2d_14">
      <defs>
       <path d="
M0 0
L-4 0" id="mcb0005524f" style="stroke:#000000;stroke-width:0.5;"/>
      </defs>
      <g>
       <use style="stroke:#000000;stroke-width:0.5;" x="528.12" xlink:href="#mcb0005524f" y="398.52"/>
      </g>
     </g>
     <g id="text_7">
      <!-- 0 -->
      <g transform="translate(63.303125 401.83125)scale(0.12 -0.12)">
       <use xlink:href="#BitstreamVeraSans-Roman-30"/>
      </g>
     </g>
    </g>
    <g id="ytick_2">
     <g id="line2d_15">
      <g>
       <use style="stroke:#000000;stroke-width:0.5;" x="73.35" xlink:href="#m728421d6d4" y="354.24"/>
      </g>
     </g>
     <g id="line2d_16">
      <g>
       <use style="stroke:#000000;stroke-width:0.5;" x="528.12" xlink:href="#mcb0005524f" y="354.24"/>
      </g>
     </g>
     <g id="text_8">
      <!-- 50 -->
      <g transform="translate(55.803125 357.55125)scale(0.12 -0.12)">
       <use xlink:href="#BitstreamVeraSans-Roman-35"/>
       <use x="63.623046875" xlink:href="#BitstreamVeraSans-Roman-30"/>
      </g>
     </g>
    </g>
    <g id="ytick_3">
     <g id="line2d_17">
      <g>
       <use style="stroke:#000000;stroke-width:0.5;" x="73.35" xlink:href="#m728421d6d4" y="309.96"/>
      </g>
     </g>
     <g id="line2d_18">
      <g>
       <use style="stroke:#000000;stroke-width:0.5;" x="528.12" xlink:href="#mcb0005524f" y="309.96"/>
      </g>
     </g>
     <g id="text_9">
      <!-- 100 -->
      <g transform="translate(48.56 313.27125)scale(0.12 -0.12)">
       <use xlink:href="#BitstreamVeraSans-Roman-31"/>
       <use x="63.623046875" xlink:href="#BitstreamVeraSans-Roman-30"/>
       <use x="127.24609375" xlink:href="#BitstreamVeraSans-Roman-30"/>
      </g>
     </g>
    </g>
    <g id="ytick_4">
     <g id="line2d_19">
      <g>
       <use style="stroke:#000000;stroke-width:0.5;" x="73.35" xlink:href="#m728421d6d4" y="265.68"/>
      </g>
     </g>
     <g id="line2d_20">
      <g>
       <use style="stroke:#000000;stroke-width:0.5;" x="528.12" xlink:href="#mcb0005524f" y="265.68"/>
      </g>
     </g>
     <g id="text_10">
      <!-- 150 -->
      <g transform="translate(48.56 268.99125)scale(0.12 -0.12)">
       <use xlink:href="#BitstreamVeraSans-Roman-31"/>
       <use x="63.623046875" xlink:href="#BitstreamVeraSans-Roman-35"/>
       <use x="127.24609375" xlink:href="#BitstreamVeraSans-Roman-30"/>
      </g>
     </g>
    </g>
    <g id="ytick_5">
     <g id="line2d_21">
      <g>
       <use style="stroke:#000000;stroke-width:0.5;" x="73.35" xlink:href="#m728421d6d4" y="221.4"/>
      </g>
     </g>
     <g id="line2d_22">
      <g>
       <use style="stroke:#000000;stroke-width:0.5;" x="528.12" xlink:href="#mcb0005524f" y="221.4"/>
      </g>
     </g>
     <g id="text_11">
      <!-- 200 -->
      <g transform="translate(48.12125 224.71125)scale(0.12 -0.12)">
       <use xlink:href="#BitstreamVeraSans-Roman-32"/>
       <use x="63.623046875" xlink:href="#BitstreamVeraSans-Roman-30"/>
       <use x="127.24609375" xlink:href="#BitstreamVeraSans-Roman-30"/>
      </g>
     </g>
    </g>
    <g id="ytick_6">
     <g id="line2d_23">
      <g>
       <use style="stroke:#000000;stroke-width:0.5;" x="73.35" xlink:href="#m728421d6d4" y="177.12"/>
      </g>
     </g>
     <g id="line2d_24">
      <g>
       <use style="stroke:#000000;stroke-width:0.5;" x="528.12" xlink:href="#mcb0005524f" y="177.12"/>
      </g>
     </g>
     <g id="text_12">
      <!-- 250 -->
      <g transform="translate(48.12125 180.43125)scale(0.12 -0.12)">
       <use xlink:href="#BitstreamVeraSans-Roman-32"/>
       <use x="63.623046875" xlink:href="#BitstreamVeraSans-Roman-35"/>
       <use x="127.24609375" xlink:href="#BitstreamVeraSans-Roman-30"/>
      </g>
     </g>
    </g>
    <g id="ytick_7">
     <g id="line2d_25">
      <g>
       <use style="stroke:#000000;stroke-width:0.5;" x="73.35" xlink:href="#m728421d6d4" y="132.84"/>
      </g>
     </g>
     <g id="line2d_26">
      <g>
       <use style="stroke:#000000;stroke-width:0.5;" x="528.12" xlink:href="#mcb0005524f" y="132.84"/>
      </g>
     </g>
     <g id="text_13">
      <!-- 300 -->
      <defs>
       <path d="
M40.5781 39.3125
Q47.6562 37.7969 51.625 33
Q55.6094 28.2188 55.6094 21.1875
Q55.6094 10.4062 48.1875 4.48438
Q40.7656 -1.42188 27.0938 -1.42188
Q22.5156 -1.42188 17.6562 -0.515625
Q12.7969 0.390625 7.625 2.20312
L7.625 11.7188
Q11.7188 9.32812 16.5938 8.10938
Q21.4844 6.89062 26.8125 6.89062
Q36.0781 6.89062 40.9375 10.5469
Q45.7969 14.2031 45.7969 21.1875
Q45.7969 27.6406 41.2812 31.2656
Q36.7656 34.9062 28.7188 34.9062
L20.2188 34.9062
L20.2188 43.0156
L29.1094 43.0156
Q36.375 43.0156 40.2344 45.9219
Q44.0938 48.8281 44.0938 54.2969
Q44.0938 59.9062 40.1094 62.9062
Q36.1406 65.9219 28.7188 65.9219
Q24.6562 65.9219 20.0156 65.0312
Q15.375 64.1562 9.8125 62.3125
L9.8125 71.0938
Q15.4375 72.6562 20.3438 73.4375
Q25.25 74.2188 29.5938 74.2188
Q40.8281 74.2188 47.3594 69.1094
Q53.9062 64.0156 53.9062 55.3281
Q53.9062 49.2656 50.4375 45.0938
Q46.9688 40.9219 40.5781 39.3125" id="BitstreamVeraSans-Roman-33"/>
      </defs>
      <g transform="translate(48.156875 136.15125)scale(0.12 -0.12)">
       <use xlink:href="#BitstreamVeraSans-Roman-33"/>
       <use x="63.623046875" xlink:href="#BitstreamVeraSans-Roman-30"/>
       <use x="127.24609375" xlink:href="#BitstreamVeraSans-Roman-30"/>
      </g>
     </g>
    </g>
    <g id="ytick_8">
     <g id="line2d_27">
      <g>
       <use style="stroke:#000000;stroke-width:0.5;" x="73.35" xlink:href="#m728421d6d4" y="88.56"/>
      </g>
     </g>
     <g id="line2d_28">
      <g>
       <use style="stroke:#000000;stroke-width:0.5;" x="528.12" xlink:href="#mcb0005524f" y="88.56"/>
      </g>
     </g>
     <g id="text_14">
      <!-- 350 -->
      <g transform="translate(48.156875 91.87125)scale(0.12 -0.12)">
       <use xlink:href="#BitstreamVeraSans-Roman-33"/>
       <use x="63.623046875" xlink:href="#BitstreamVeraSans-Roman-35"/>
       <use x="127.24609375" xlink:href="#BitstreamVeraSans-Roman-30"/>
      </g>
     </g>
    </g>
    <g id="ytick_9">
     <g id="line2d_29">
      <g>
       <use style="stroke:#000000;stroke-width:0.5;" x="73.35" xlink:href="#m728421d6d4" y="44.28"/>
      </g>
     </g>
     <g id="line2d_30">
      <g>
       <use style="stroke:#000000;stroke-width:0.5;" x="528.12" xlink:href="#mcb0005524f" y="44.28"/>
      </g>
     </g>
     <g id="text_15">
      <!-- 400 -->
      <defs>
       <path d="
M37.7969 64.3125
L12.8906 25.3906
L37.7969 25.3906
z

M35.2031 72.9062
L47.6094 72.9062
L47.6094 25.3906
L58.0156 25.3906
L58.0156 17.1875
L47.6094 17.1875
L47.6094 0
L37.7969 0
L37.7969 17.1875
L4.89062 17.1875
L4.89062 26.7031
z
" id="BitstreamVeraSans-Roman-34"/>
      </defs>
      <g transform="translate(47.82875 47.59125)scale(0.12 -0.12)">
       <use xlink:href="#BitstreamVeraSans-Roman-34"/>
       <use x="63.623046875" xlink:href="#BitstreamVeraSans-Roman-30"/>
       <use x="127.24609375" xlink:href="#BitstreamVeraSans-Roman-30"/>
      </g>
     </g>
    </g>
    <g id="text_16">
     <!-- loss -->
     <defs>
      <path d="
M30.6094 48.3906
Q23.3906 48.3906 19.1875 42.75
Q14.9844 37.1094 14.9844 27.2969
Q14.9844 17.4844 19.1562 11.8438
Q23.3438 6.20312 30.6094 6.20312
Q37.7969 6.20312 41.9844 11.8594
Q46.1875 17.5312 46.1875 27.2969
Q46.1875 37.0156 41.9844 42.7031
Q37.7969 48.3906 30.6094 48.3906
M30.6094 56
Q42.3281 56 49.0156 48.375
Q55.7188 40.7656 55.7188 27.2969
Q55.7188 13.875 49.0156 6.21875
Q42.3281 -1.42188 30.6094 -1.42188
Q18.8438 -1.42188 12.1719 6.21875
Q5.51562 13.875 5.51562 27.2969
Q5.51562 40.7656 12.1719 48.375
Q18.8438 56 30.6094 56" id="BitstreamVeraSans-Roman-6f"/>
      <path d="
M44.2812 53.0781
L44.2812 44.5781
Q40.4844 46.5312 36.375 47.5
Q32.2812 48.4844 27.875 48.4844
Q21.1875 48.4844 17.8438 46.4375
Q14.5 44.3906 14.5 40.2812
Q14.5 37.1562 16.8906 35.375
Q19.2812 33.5938 26.5156 31.9844
L29.5938 31.2969
Q39.1562 29.25 43.1875 25.5156
Q47.2188 21.7812 47.2188 15.0938
Q47.2188 7.46875 41.1875 3.01562
Q35.1562 -1.42188 24.6094 -1.42188
Q20.2188 -1.42188 15.4531 -0.5625
Q10.6875 0.296875 5.42188 2
L5.42188 11.2812
Q10.4062 8.6875 15.2344 7.39062
Q20.0625 6.10938 24.8125 6.10938
Q31.1562 6.10938 34.5625 8.28125
Q37.9844 10.4531 37.9844 14.4062
Q37.9844 18.0625 35.5156 20.0156
Q33.0625 21.9688 24.7031 23.7812
L21.5781 24.5156
Q13.2344 26.2656 9.51562 29.9062
Q5.8125 33.5469 5.8125 39.8906
Q5.8125 47.6094 11.2812 51.7969
Q16.75 56 26.8125 56
Q31.7812 56 36.1719 55.2656
Q40.5781 54.5469 44.2812 53.0781" id="BitstreamVeraSans-Roman-73"/>
      <path d="
M9.42188 75.9844
L18.4062 75.9844
L18.4062 0
L9.42188 0
z
" id="BitstreamVeraSans-Roman-6c"/>
     </defs>
     <g transform="translate(40.333125 232.1315625)rotate(-90.0)scale(0.12 -0.12)">
      <use xlink:href="#BitstreamVeraSans-Roman-6c"/>
      <use x="27.783203125" xlink:href="#BitstreamVeraSans-Roman-6f"/>
      <use x="88.96484375" xlink:href="#BitstreamVeraSans-Roman-73"/>
      <use x="141.064453125" xlink:href="#BitstreamVeraSans-Roman-73"/>
     </g>
    </g>
   </g>
   <g id="legend_1">
    <g id="patch_7">
     <path d="
M412.2 98.073
L520.92 98.073
L520.92 51.48
L412.2 51.48
z
" style="fill:#ffffff;stroke:#000000;stroke-linejoin:miter;"/>
    </g>
    <g id="line2d_31">
     <path d="
M422.28 63.1417
L442.44 63.1417" style="fill:none;stroke:#0000ff;stroke-linecap:square;"/>
    </g>
    <g id="line2d_32"/>
    <g id="text_17">
     <!-- $\alpha = 0.001$ -->
     <defs>
      <path d="
M20.125 -1.125
Q15.375 -1.125 11.6875 1.125
Q8.01562 3.375 6 7.17188
Q4 10.9844 4 15.8281
Q4 22.6094 7.78125 29.25
Q11.5781 35.8906 17.8438 40.0312
Q24.125 44.1875 31 44.1875
Q36.0781 44.1875 39.9375 41.5312
Q43.7969 38.875 45.7969 34.4531
Q47.7969 30.0312 47.7969 25
L47.9062 18.3125
Q51.3125 23.0469 53.6875 28.1406
Q56.0625 33.25 57.3281 38.7188
Q57.5156 39.3125 58.1094 39.3125
L59.2812 39.3125
Q60.2031 39.3125 60.2031 38.375
Q60.2031 38.2812 60.1094 38.0938
Q58.9375 33.5 57.1719 29.2656
Q55.4219 25.0469 53.0469 21.0938
Q50.6875 17.1406 47.9062 13.9219
Q47.9062 1.51562 50.7812 1.51562
Q52.6406 1.51562 53.8281 2.60938
Q55.0312 3.71875 55.9375 5.32812
Q56.8438 6.9375 57.0781 6.98438
L58.2969 6.98438
Q59.0781 6.98438 59.0781 6
Q59.0781 3.51562 56.2188 1.1875
Q53.375 -1.125 50.5938 -1.125
Q46.9688 -1.125 44.5781 1.21875
Q42.1875 3.5625 41.3125 7.32812
Q36.625 3.32812 31.1562 1.09375
Q25.6875 -1.125 20.125 -1.125
M20.3125 1.51562
Q31 1.51562 40.8281 10.2969
Q40.7656 10.8906 40.6719 11.7344
Q40.5781 12.5938 40.5781 12.7031
L40.5781 23.4844
Q40.5781 41.6094 30.8125 41.6094
Q24.9531 41.6094 20.5469 36.5938
Q16.1562 31.5938 13.9375 24.625
Q11.7188 17.6719 11.7188 11.9219
Q11.7188 7.5625 13.9375 4.53125
Q16.1562 1.51562 20.3125 1.51562" id="Cmmi10-ae"/>
      <path d="
M9.28125 0
L9.28125 3.51562
Q21.7812 3.51562 21.7812 6.6875
L21.7812 59.1875
Q16.6094 56.6875 8.6875 56.6875
L8.6875 60.2031
Q20.9531 60.2031 27.2031 66.6094
L28.6094 66.6094
Q28.9531 66.6094 29.2656 66.3281
Q29.5938 66.0625 29.5938 65.7188
L29.5938 6.6875
Q29.5938 3.51562 42.0938 3.51562
L42.0938 0
z
" id="Cmr10-31"/>
      <path d="
M25 -2.20312
Q12.75 -2.20312 8.32812 7.875
Q3.90625 17.9688 3.90625 31.8906
Q3.90625 40.5781 5.48438 48.2344
Q7.07812 55.9062 11.7812 61.25
Q16.5 66.6094 25 66.6094
Q31.5938 66.6094 35.7812 63.375
Q39.9844 60.1562 42.1875 55.0469
Q44.3906 49.9531 45.1875 44.1094
Q46 38.2812 46 31.8906
Q46 23.2969 44.4062 15.7969
Q42.8281 8.29688 38.1875 3.04688
Q33.5469 -2.20312 25 -2.20312
M25 0.390625
Q30.5625 0.390625 33.2969 6.09375
Q36.0312 11.8125 36.6719 18.75
Q37.3125 25.6875 37.3125 33.5
Q37.3125 41.0156 36.6719 47.3594
Q36.0312 53.7188 33.3125 58.8594
Q30.6094 64.0156 25 64.0156
Q19.3438 64.0156 16.6094 58.8281
Q13.875 53.6562 13.2344 47.3281
Q12.5938 41.0156 12.5938 33.5
Q12.5938 27.9375 12.8594 23
Q13.1406 18.0625 14.3125 12.8125
Q15.4844 7.5625 18.0938 3.96875
Q20.7031 0.390625 25 0.390625" id="Cmr10-30"/>
      <path d="
M8.40625 5.51562
Q8.40625 7.76562 10.0625 9.375
Q11.7188 10.9844 13.9219 10.9844
Q15.2812 10.9844 16.5938 10.25
Q17.9219 9.51562 18.6562 8.20312
Q19.3906 6.89062 19.3906 5.51562
Q19.3906 3.32812 17.7656 1.65625
Q16.1562 0 13.9219 0
Q11.7188 0 10.0625 1.65625
Q8.40625 3.32812 8.40625 5.51562" id="Cmmi10-3a"/>
      <path d="
M7.51562 13.2812
Q6.6875 13.2812 6.14062 13.9062
Q5.60938 14.5469 5.60938 15.2812
Q5.60938 16.1094 6.14062 16.6875
Q6.6875 17.2812 7.51562 17.2812
L70.3125 17.2812
Q71.0469 17.2812 71.5781 16.6875
Q72.125 16.1094 72.125 15.2812
Q72.125 14.5469 71.5781 13.9062
Q71.0469 13.2812 70.3125 13.2812
z

M7.51562 32.7188
Q6.6875 32.7188 6.14062 33.2969
Q5.60938 33.8906 5.60938 34.7188
Q5.60938 35.4531 6.14062 36.0781
Q6.6875 36.7188 7.51562 36.7188
L70.3125 36.7188
Q71.0469 36.7188 71.5781 36.0781
Q72.125 35.4531 72.125 34.7188
Q72.125 33.8906 71.5781 33.2969
Q71.0469 32.7188 70.3125 32.7188
z
" id="Cmr10-3d"/>
     </defs>
     <g transform="translate(458.28 68.18175)scale(0.144 -0.144)">
      <use transform="translate(0.0 0.390625)" xlink:href="#Cmmi10-ae"/>
      <use transform="translate(81.474609375 0.390625)" xlink:href="#Cmr10-3d"/>
      <use transform="translate(165.533203125 0.390625)" xlink:href="#Cmr10-30"/>
      <use transform="translate(215.533203125 0.390625)" xlink:href="#Cmmi10-3a"/>
      <use transform="translate(244.076171875 0.390625)" xlink:href="#Cmr10-30"/>
      <use transform="translate(294.076171875 0.390625)" xlink:href="#Cmr10-30"/>
      <use transform="translate(344.076171875 0.390625)" xlink:href="#Cmr10-31"/>
     </g>
    </g>
    <g id="line2d_33">
     <path d="
M422.28 84.2782
L442.44 84.2782" style="fill:none;stroke:#ff0000;stroke-linecap:square;"/>
    </g>
    <g id="line2d_34"/>
    <g id="text_18">
     <!-- $\alpha = 0.005$ -->
     <defs>
      <path d="
M8.6875 11.375
Q9.71875 8.45312 11.8438 6.04688
Q13.9688 3.65625 16.875 2.3125
Q19.7812 0.984375 22.9062 0.984375
Q30.125 0.984375 32.8594 6.59375
Q35.5938 12.2031 35.5938 20.2188
Q35.5938 23.6875 35.4688 26.0469
Q35.3594 28.4219 34.8125 30.6094
Q33.8906 34.125 31.5625 36.7656
Q29.25 39.4062 25.875 39.4062
Q22.5156 39.4062 20.0938 38.375
Q17.6719 37.3594 16.1562 35.9844
Q14.6562 34.625 13.4844 33.1094
Q12.3125 31.5938 12.0156 31.5
L10.8906 31.5
Q10.6406 31.5 10.2656 31.8125
Q9.90625 32.125 9.90625 32.4219
L9.90625 65.8281
Q9.90625 66.0625 10.2188 66.3281
Q10.5469 66.6094 10.8906 66.6094
L11.1875 66.6094
Q17.9219 63.375 25.4844 63.375
Q32.9062 63.375 39.7969 66.6094
L40.0938 66.6094
Q40.4375 66.6094 40.7188 66.3594
Q41.0156 66.1094 41.0156 65.8281
L41.0156 64.8906
Q41.0156 64.4062 40.8281 64.4062
Q37.4062 59.8594 32.25 57.3125
Q27.0938 54.7812 21.5781 54.7812
Q17.5781 54.7812 13.375 55.9062
L13.375 37.0156
Q16.7031 39.7031 19.3125 40.8438
Q21.9219 42 25.9844 42
Q31.5 42 35.8594 38.8125
Q40.2344 35.6406 42.5781 30.5312
Q44.9219 25.4375 44.9219 20.125
Q44.9219 14.1094 41.9688 8.98438
Q39.0156 3.85938 33.9375 0.828125
Q28.8594 -2.20312 22.9062 -2.20312
Q17.9688 -2.20312 13.8438 0.328125
Q9.71875 2.875 7.34375 7.17188
Q4.98438 11.4688 4.98438 16.3125
Q4.98438 18.5625 6.4375 19.9688
Q7.90625 21.3906 10.1094 21.3906
Q12.3125 21.3906 13.7969 19.9375
Q15.2812 18.5 15.2812 16.3125
Q15.2812 14.1562 13.7969 12.6719
Q12.3125 11.1875 10.1094 11.1875
Q9.76562 11.1875 9.32812 11.25
Q8.89062 11.3281 8.6875 11.375" id="Cmr10-35"/>
     </defs>
     <g transform="translate(458.28 89.31825)scale(0.144 -0.144)">
      <use transform="translate(0.0 0.390625)" xlink:href="#Cmmi10-ae"/>
      <use transform="translate(81.474609375 0.390625)" xlink:href="#Cmr10-3d"/>
      <use transform="translate(165.533203125 0.390625)" xlink:href="#Cmr10-30"/>
      <use transform="translate(215.533203125 0.390625)" xlink:href="#Cmmi10-3a"/>
      <use transform="translate(244.076171875 0.390625)" xlink:href="#Cmr10-30"/>
      <use transform="translate(294.076171875 0.390625)" xlink:href="#Cmr10-30"/>
      <use transform="translate(344.076171875 0.390625)" xlink:href="#Cmr10-35"/>
     </g>
    </g>
   </g>
  </g>
 </g>
 <defs>
  <clipPath id="p9061672a36">
   <rect height="354.24" width="454.77" x="73.35" y="44.28"/>
  </clipPath>
 </defs>
</svg>
